<svg width="480" height="480" fill="none" xmlns="http://www.w3.org/2000/svg">
  <path d="M6.82 285.94s-26.1 62.96 23.86 107.62c49.96 44.66 392.27 77.22 436.92-70.41 44.65-147.63-41.88-147.73-92.35-205.78C324.77 59.32 292.33 14.6 184.89 38.4 77.44 62.2 6.82 285.93 6.82 285.93z" fill="#DAF3FF"/>
  <path d="M150.66 198.96c.2-1.38 1.54-2.66 2.88-2.28.9.26 1.49 1.18 2.35 1.57 2.5 1.13 5.25-2.61 7.78-1.57.82.34 1.38 1.1 2.15 1.52 1.56.85 3.47.07 5.1-.62 1.64-.7 3.7-1.25 5.06-.08.74.63 1.07 1.65 1.82 2.27.96.8 2.38.75 3.58.41 1.2-.33 2.35-.9 3.6-1.04 1.25-.13 2.69.35 3.15 1.5.21.55.27 1.27.8 1.49.22.08.47.05.7.03l3.13-.39c.43-.05.9-.1 1.26.13.44.27.6.82.7 1.33.2.84.4 1.74.1 2.56-.5 1.44-2.25 2-3.77 2.2-3.49.48-7.04.2-10.54-.14a206.5 206.5 0 01-18-2.4c-3-.55-6-1.16-8.94-1.95-2.16-.57-3.28-2.13-2.91-4.54zM135.65 259.46c-.12 1.38.74 2.94 1.97 2.86.85-.05 1.55-.81 2.38-1 2.4-.54 3.93 3.71 6.34 3.26.78-.14 1.43-.77 2.19-1 1.53-.47 3 .71 4.25 1.75 1.26 1.05 2.91 2.04 4.33 1.21.78-.45 1.29-1.37 2.07-1.8 1.01-.57 2.21-.2 3.18.4.96.59 1.82 1.4 2.86 1.81 1.04.4 2.39.26 3.04-.76.31-.48.52-1.17 1.03-1.26.2-.03.4.05.6.13l2.6 1.06c.36.15.75.3 1.12.16.44-.16.7-.67.9-1.13.36-.78.72-1.61.66-2.47-.12-1.52-1.5-2.45-2.76-2.99-2.9-1.24-6-1.76-9.1-2.22-5.31-.8-10.65-1.43-16.02-1.7-2.7-.12-5.42-.2-8.13-.09-1.97.08-3.28 1.36-3.5 3.78z" fill="#41C3FF"/>
  <path d="M151.19 201.43s-26.8 24.19-13.93 56.14l37.48 4.5s21.36-9.21 20.74-56.41c-4.55-1.5-22.67-5.29-44.3-4.23z" fill="#A7E3FF"/>
  <path d="M193.54 206.87s-19.76 19.96-19.1 53.47c10.85-8.7 21.43-28.32 19.1-53.47zM169.54 239.4c.52-6.48-6.5-7.7-10.44-3.23-2.55 2.9-8.63 6.42-12.82 2.61 6.53 8.16 22.26 12.97 23.26.62z" fill="#41C3FF"/>
  <path d="M147.51 228.58c4.13-3.24 9.43 2.59 8.85 6.4-.58 3.82.07 10.77 5.63 11.82-7.62 1.47-24.23-10.58-14.48-18.22zM152.02 209.52s-3.44 3.6-3.55 7.6c15.5 1.87 26.68 3.2 26.68 3.2s1.02-5.77 4.23-7.83c-9.46-.96-27.36-2.97-27.36-2.97z" fill="#DAF3FF"/>
  <path d="M101.78 198.96c.21-1.38 1.55-2.66 2.88-2.28.92.26 1.5 1.18 2.36 1.57 2.5 1.13 5.24-2.61 7.78-1.57.82.34 1.37 1.1 2.15 1.52 1.56.85 3.47.07 5.1-.62 1.64-.7 3.7-1.25 5.06-.08.74.63 1.07 1.65 1.82 2.27.96.8 2.37.75 3.58.41 1.2-.33 2.35-.9 3.6-1.04 1.24-.13 2.69.35 3.15 1.5.21.55.27 1.27.8 1.49.22.08.47.05.7.03l3.13-.39c.43-.05.89-.1 1.26.13.44.27.6.82.7 1.33.2.84.39 1.74.1 2.56-.5 1.44-2.25 2-3.77 2.2-3.49.48-7.03.2-10.54-.14a206.5 206.5 0 01-18-2.4c-3-.55-6-1.16-8.95-1.95-2.15-.57-3.27-2.13-2.9-4.54zM86.78 259.46c-.12 1.38.74 2.94 1.97 2.86.85-.05 1.55-.81 2.38-1 2.4-.54 3.93 3.71 6.34 3.26.78-.14 1.43-.77 2.19-1 1.53-.47 3 .71 4.25 1.75 1.26 1.05 2.91 2.04 4.33 1.21.78-.45 1.29-1.37 2.07-1.8 1-.57 2.21-.2 3.17.4.97.59 1.83 1.4 2.87 1.81 1.04.4 2.39.26 3.04-.76.3-.48.52-1.17 1.02-1.26.21-.03.42.05.61.13l2.6 1.06c.36.15.75.3 1.12.16.43-.16.7-.67.9-1.13.36-.78.72-1.61.65-2.47-.11-1.52-1.48-2.45-2.75-2.99-2.9-1.24-6-1.76-9.1-2.22-5.31-.8-10.65-1.43-16.02-1.7-2.7-.12-5.42-.2-8.13-.09-1.97.08-3.28 1.36-3.5 3.78z" fill="#41C3FF"/>
  <path d="M102.32 201.43s-26.8 24.19-13.92 56.14l37.47 4.5s21.36-9.21 20.75-56.41c-4.56-1.5-22.68-5.29-44.3-4.23z" fill="#A7E3FF"/>
  <path d="M144.67 206.87s-19.76 19.96-19.1 53.47c10.85-8.7 21.43-28.32 19.1-53.47zM120.67 239.4c.52-6.48-6.5-7.7-10.44-3.23-2.55 2.9-8.63 6.42-12.82 2.61 6.53 8.16 22.27 12.97 23.26.62z" fill="#41C3FF"/>
  <path d="M98.64 228.58c4.13-3.24 9.43 2.59 8.85 6.4-.58 3.82.07 10.77 5.63 11.82-7.62 1.47-24.23-10.58-14.48-18.22zM103.15 209.52s-3.44 3.6-3.55 7.6c15.5 1.87 26.68 3.2 26.68 3.2s1.02-5.77 4.23-7.83c-9.45-.96-27.36-2.97-27.36-2.97z" fill="#DAF3FF"/>
  <path d="M141.67 152.86c4.34 0 7.86-3.5 7.89-7.84l.36-51.6a5.2 5.2 0 00-5.06-5.14l-10.3-1.79a7.72 7.72 0 00-3.11.09c-6.63 1.57-26.91 8.72-26.9 11.17l1.24 55.1h35.88z" fill="#41C3FF"/>
  <path d="M132.94 88.5l-19 .02-.02-9.33c0-1.84 1.5-3.34 3.37-3.34l12.25-.02c1.87 0 3.38 1.5 3.38 3.34l.02 9.33z" fill="#41C3FF"/>
  <path d="M132.3 152.86a6.11 6.11 0 006.1-6.13l-.06-55.33a5.09 5.09 0 00-4.78-5.15l-32.28.89a4.7 4.7 0 00-4.77 4.85l.15 54.77a6.12 6.12 0 006.11 6.1h29.53z" fill="#A7E3FF"/>
  <path d="M124.6 124.43c6.08-4.02 7.84-12.09 3.92-18.02-3.92-5.92-12.03-7.47-18.12-3.45-6.08 4.02-7.83 12.1-3.91 18.02 3.92 5.93 12.03 7.48 18.11 3.45z" fill="#DAF3FF"/>
  <path d="M188.2 152.86c4.33 0 7.86-3.5 7.88-7.84l.37-51.6a5.2 5.2 0 00-5.06-5.14l-10.3-1.79a7.72 7.72 0 00-3.12.09c-6.62 1.57-26.9 8.72-26.9 11.17l1.24 55.1h35.89z" fill="#41C3FF"/>
  <path d="M179.47 88.5l-19 .02-.02-9.33c0-1.84 1.5-3.34 3.36-3.34l12.26-.02c1.87 0 3.38 1.5 3.38 3.34l.02 9.33z" fill="#41C3FF"/>
  <path d="M178.82 152.86a6.11 6.11 0 006.11-6.13l-.07-55.33a5.09 5.09 0 00-4.78-5.15l-32.28.89a4.7 4.7 0 00-4.77 4.85l.15 54.77a6.12 6.12 0 006.11 6.1h29.53z" fill="#A7E3FF"/>
  <path d="M171.13 124.43c6.08-4.02 7.84-12.09 3.92-18.02s-12.03-7.47-18.12-3.45c-6.08 4.02-7.84 12.09-3.92 18.02s12.03 7.48 18.12 3.45z" fill="#DAF3FF"/>
  <path d="M58.74 165.16h142.78v95.17H30.95v-37.6a837.52 837.52 0 00-11.2 27.3v132.02a96.5 96.5 0 0010.93 11.5l.27.23V273.87h170.57v157c3.7.1 7.4.2 11.13.24V152.25H65.94c-2.47 4.3-4.87 8.6-7.2 12.9zM395.1 136.45l7.66 111.9 13.76-2.97a10.17 10.17 0 008.01-9.66l2.16-75.62c-10.37-7.62-21.24-15.1-31.59-23.65z" fill="#A7E3FF"/>
  <path d="M375.25 117.37c-2.72-3.13-5.38-6.2-8-9.25a736.94 736.94 0 00-53 4.13c-6.69.75-11.56 6.05-11.55 12.55l.24 118.62 96.5 2.2 2.66-103.6c-9.43-7.27-18.62-15.19-26.85-24.65z" fill="#41C3FF"/>
  <path d="M302.74 145.7l.2 100.18 99.82 2.46s-1.83-60.81-.7-104.9c-43.8-.93-78.8 1.44-99.32 2.26z" fill="#DAF3FF"/>
  <path d="M318.1 240.33l.41-78.52a5.81 5.81 0 015.5-5.74c9.47-.78 30.03-2.21 51.7-2.08 3.63.03 6.68 2.97 6.7 6.45l.61 81.93c.03 3.33-2.73 5.92-6.2 5.83l-52.13-1.36c-3.62-.1-6.6-3.05-6.59-6.51z" fill="#fff"/>
  <path d="M347.07 247.42l2.64.07-.04-93-2.63.12.03 92.81z" fill="#DAF3FF"/>
  <path d="M322.43 127.17c10.89-.73 35.74-2.26 55.4-2.32a4.6 4.6 0 003.2-1.25c-1.98-2-3.9-4.07-5.78-6.23-4.4-5.06-8.65-10-12.83-14.82-16.61.53-33.37 1.6-40.87 2.12a4.36 4.36 0 00-4.18 4.22l-.35 13.31c-.07 2.81 2.49 5.17 5.4 4.97zM391.11 133.07c-36.5-1.5-74.33.93-88.4 2l.02 4.83c14.12-1.1 55.85-3.86 94.43-1.77a221.56 221.56 0 01-6.05-5.06z" fill="#A7E3FF"/>
  <path d="M334.1 122.49a8.05 8.05 0 002.88-11.02 8.05 8.05 0 00-11.1-2.51 8.05 8.05 0 00-2.88 11.01 8.05 8.05 0 0011.1 2.52z" fill="#41C3FF"/>
  <path d="M326.75 114.74c.32-.32.63-.57 1.07-.64 1.07-.17 1.87-.06 1.94-2.76.13-1.4 2.2-1.32 2.18.3l-.04 1.43c0 .3.24.54.54.54l.92-.01a1.6 1.6 0 011.57 2.08l-.79 2.64a1.74 1.74 0 01-1.64 1.24l-3.85.03c-.58 0-1.13-.22-1.53-.62l-.45-.44.08-3.8z" fill="#DAF3FF"/>
  <path d="M326.62 119.6l-.47.01a1.1 1.1 0 01-1.13-1.12l.08-3.69c.01-.62.54-1.13 1.18-1.14h.46c.32 0 .57.25.57.56l-.1 4.81c-.01.32-.27.58-.6.58zM344.93 117.61c6.13-.36 19.23-1.08 26.87-1.03.82 0 1.52-.33 2.03-.86l-4.11-4.74c-6.62.05-18.38.25-25.58.98a2.66 2.66 0 00-2.47 2.57v.05c-.04 1.7 1.5 3.13 3.26 3.03z" fill="#DAF3FF"/>
  <g opacity=".4" fill="#fff">
    <path opacity=".4" d="M251.34 364.73l205.69-178.15c-4.31-4.95-9.06-9.48-14.1-13.78L251.34 330.92v33.8z"/>
    <g opacity=".4">
      <path opacity=".4" d="M316.68 57.12l-64.53 53.9v35.35l84.5-71.83a194.16 194.16 0 00-19.97-17.42zM255.6 192.64l105.45-91.66c-2.06-2.38-4.11-4.7-6.15-7l-101.65 86.1 2.34 12.56z"/>
    </g>
  </g>
  <path d="M245.38 430.7c4.74-.19 9.47-.42 14.2-.72V33.32c-4.53-.64-9.26-1.07-14.2-1.29V430.7z" fill="#A7E3FF"/>
  <path d="M221.85 305.33c-21.96 0-44.4-41.34-46.93-46.14a4.34 4.34 0 017.67-4.05c8.75 16.57 27.32 42.5 39.94 41.49 6.92-.56 11.5-9.97 14.14-17.77a4.34 4.34 0 118.22 2.78c-5.05 14.93-12.34 22.89-21.67 23.63-.46.04-.92.06-1.37.06zM88.04 421.25c3.85-44.2-4.15-70.34-4.63-71.84a5.35 5.35 0 10-10.22 3.25c.1.34 7.57 24.76 4.2 66.32 3.45.78 7.02 1.54 10.65 2.27zM157.35 430.7c5.98-49.9-3.13-79.69-3.64-81.3a5.36 5.36 0 10-10.22 3.26c.12.37 8.87 29.01 3.13 77.1 3.54.34 7.12.66 10.73.94z" fill="#fff"/>
  <path d="M75.8 129.47c-1.12-1.9-2.95-2.99-5.26-2.36-2.31.63-3.74 2.28-3.77 4.5 0 0-7.88-2.91-5.57 1.2 1.63 2.72 4.58 5.71 6.2 7.17 0 0 8.97-1.17 11.71-2.55.9-2.46 2.09-6.26 2.34-8.86.65-4.6-5.44.53-5.65.9z" fill="#90BC3F"/>
  <path d="M103.88 229l-19.23 4.6c-5.28 1.1-10.4-1.92-11.5-7.32L59.14 165.3c-.48-3.04.2-6.38 2.34-8.86l8.14-9.16c2.93-3 6.97-4.1 10.77-2.61l11.09 4.57a9.06 9.06 0 015.83 6.95l14.02 60.99c.73 5.17-2.53 10.48-7.44 11.82z" fill="url(#paint0_linear)"/>
  <path d="M92.97 138.4c-.86-4.5-3.11-9.58-3.11-9.58l-11.98 8.63a5.04 5.04 0 00-4.3-1.05 5.98 5.98 0 00-4.45 3.1l-14.11-3.12s-.28 6.08.88 10.51a35.9 35.9 0 003.25 8.92l11.4-8.47c1.26 1.24 3.22 1.65 4.82 1.85 2.46-.04 4.1-2.06 5.16-3.93l14.12 3.12c-.95-.06-.81-5.47-1.68-9.98z" fill="url(#paint1_linear)"/>
  <path d="M143.8 236.17l-54.95-3.08c-3.2-.4-5.7-2.88-5.75-6.66l3.02-56.14a6.43 6.43 0 016.51-5.88l54.96 3.09c3.2.4 5.7 2.88 5.75 6.65l-3.02 56.14c-.6 3.64-3.32 6.27-6.52 5.88z" fill="url(#paint2_linear)"/>
  <path d="M124.71 235.35l-16.99-1.07 3.5-68.6 16.98 1.08-3.49 68.59z" fill="url(#paint3_linear)"/>
  <path d="M144.64 155.02a6.5 6.5 0 00-2.06-1.97c-7.1-4.7-16.17 5.66-19.23 9.34-.89-1.02-1.98-1.67-3.22-1.66-1.23.02-2.46.04-3.75 1.03-2.68-4.34-9.87-15.34-17.5-11.37-.8.53-1.87 1.14-2.3 1.89-2.5 2.26-2.47 4.77-1.8 6.17 1.83 5.83 15.5 8.44 20.52 8.65a4.51 4.51 0 004.33 3.56 4.2 4.2 0 004.74-3.18l.28-.07c4.65 0 19.15-.15 21.6-6.19-.01-1.26.39-3.27-1.61-6.2zm-44.5 2.61c-.72-.43-1.03-1.61-.6-2.36.2-.37 1-.9 1.28-.99 3.03-1.45 7.3 3.08 10.26 7.33-5.31-1.4-9.03-2.6-10.93-3.98zm41.59 1.66c-1.06 1.87-6.42 2.69-12.72 3.45 3.36-3.75 8.16-7.9 10.87-5.8 1.31.28 1.98 1.68 1.85 2.35z" fill="url(#paint4_linear)"/>
  <path d="M95.9 234.01l-50.8 22.34c-3.03 1.46-6.54-.12-7.96-3.21l-21.87-51.9c-1.42-3.1.12-6.68 3.15-8.13l50.8-22.34c3.03-1.45 6.53.13 7.96 3.22l21.86 51.9a6.74 6.74 0 01-3.14 8.12z" fill="url(#paint5_linear)"/>
  <path d="M78.38 241.62l-15.77 7.13-26.97-63.16 15.86-6.84 26.88 62.87z" fill="url(#paint6_linear)"/>
  <path d="M60.73 160.75c-1.02-.35-1.75-.79-2.98-.77-8.94-1.05-11.93 12.41-13.09 17.47a7.2 7.2 0 00-3.49-.32 5.62 5.62 0 00-2.5 2.26c-4.47-2.9-15.37-9.1-20.7-2.27-.43.74-1.14 1.57-1.41 2.9-.97 3.43-.14 5.42.96 6.07 4.27 4.53 17.62-.05 22.17-1.6 1.32 1.54 3.37 2.25 5.02 1.48a4.88 4.88 0 003.05-4.94l.29-.07c4.1-2.07 16.84-9 17.03-15.38-.6-1.1-1.2-3.47-4.35-4.83zm-38.32 22.74c-.94-.06-1.54-1.16-1.4-1.83-.08-.3.35-1.04.85-1.5 2.14-2.47 7.9-.56 12.28 2.04-5.57 1.2-9.77 1.7-11.73 1.3zm37.82-17.54c.25 2.14-4.41 5.62-10.02 9.04 1.52-4.84 4.05-10.58 7.25-10.19 1.44-.39 2.7.85 2.77 1.15z" fill="url(#paint7_linear)"/>
  <path d="M42.74 192.6s-8.75 12.63-19.68 23.54a23.96 23.96 0 00-6.53 21.55c5.26 26.82 10.3 71.6 7.73 98.1a23.88 23.88 0 009.07 21.1c12.68 9.9 27.06 17.8 27.06 17.8l23.56-87.26-41.21-94.83z" fill="url(#paint8_linear)"/>
  <path d="M40.28 204.75c8.8 27.26 25.64 92.09 11.55 155.1-1.46 6.5 2.25 13.09 8.56 14.85 40.99 11.45 96.09 3.42 115.95-.13a12.21 12.21 0 009.66-9.04c6.28-24.36 22.04-103.2-14.08-174.03a12.28 12.28 0 00-9.37-6.74c-15.73-1.96-59.55-5.77-112.74 3.8a12.48 12.48 0 00-9.53 16.19z" fill="url(#paint9_linear)"/>
  <path opacity=".3" d="M83.12 222.3a2.08 2.08 0 01-1.43-.77 2.18 2.18 0 01.28-3.01c.42-.36 10.54-8.74 22.08-2.17a2.17 2.17 0 01.81 2.92 2.08 2.08 0 01-2.85.83c-9-5.13-17.03 1.44-17.37 1.72-.44.37-.99.53-1.52.48zM141.64 217.8c-.5-.04-.99-.28-1.33-.71-.7-.85-.58-2.11.26-2.82.4-.34 9.85-8.16 20.62-2.03.95.54 1.29 1.76.76 2.73a1.93 1.93 0 01-2.66.77c-8.46-4.82-16.14 1.54-16.22 1.61-.42.35-.93.5-1.43.46z" fill="#004F74"/>
  <path d="M83.37 278.95c2.64-7.36 11.52-11.25 22.58-7.15 15.08 5.59 38.29.13 48.26-5.25 4.6-2.49 10.44-1.31 13.59 1.87 5.24 5.3 5.78 15.94 1.03 22.88-5.95 8.7-29.02 13-40.8 13.57-23.56 1.14-53.05-2.43-44.66-25.92z" fill="url(#paint10_linear)"/>
  <path d="M156.74 275.36s3.5-1.92-.8-9.55c-.59.2-1.16.44-1.72.74-9.98 5.39-33.2 10.84-48.26 5.26a24.7 24.7 0 00-8.96-1.65c-.82 2-2.13 6.11-.06 8.18 2.8 2.78 36.97 8.14 59.8-2.98z" fill="#fff"/>
  <path d="M91.53 300.17c9.28 4.55 23.75 5.32 36.5 4.7 5.35-.26 13.03-1.3 20.38-3.16-3.7-8.1-14.52-14.3-27.58-14.9-13.63-.61-25.37 5.06-29.3 13.36z" fill="url(#paint11_linear)"/>
  <path opacity=".3" d="M110.35 315.26s22.67 1.97 37.39-2.6c-9 12.54-31.67 8.67-37.4 2.6z" fill="#004F74"/>
  <path d="M97.54 248.19a6.93 6.93 0 006.85-7c0-3.87-3.07-7-6.85-7a6.93 6.93 0 00-6.86 7c0 3.87 3.07 7 6.86 7z" fill="#004F74"/>
  <path d="M94.2 245.25a3.88 3.88 0 003.84-3.92 3.88 3.88 0 00-3.83-3.92 3.88 3.88 0 00-3.84 3.92 3.88 3.88 0 003.84 3.92z" fill="#fff"/>
  <path d="M153.39 243.11a6.93 6.93 0 006.86-7c0-3.87-3.07-7-6.86-7a6.93 6.93 0 00-6.85 7c0 3.87 3.06 7 6.85 7z" fill="#004F74"/>
  <path d="M149.12 240.9a3.88 3.88 0 003.83-3.92 3.88 3.88 0 00-3.83-3.92 3.88 3.88 0 00-3.84 3.92 3.88 3.88 0 003.84 3.92z" fill="#fff"/>
  <path d="M147.08 334.26l46.52-11.93s-.8 37.56-6.1 47.57c-5.3 10-71.9 13.05-71.9 13.05s-42.22-.73-61.65-9.35c-19.44-8.63-30.22-21.12-30.09-23.25.13-2.14-1.5-24.75 1.1-30.39 9.56 3.27 62.57 16.43 62.57 16.43l34.46-4.2 15.26 6.33 9.83-4.26z" fill="#FCB70B"/>
  <path d="M23.86 350.34c-.13 2.14 10.65 14.63 30.08 23.25l.28.12c-4.28-6.17-4.3-16.08-2.25-22.03 1.88-5.44 3.43-16.54 4.24-23.21-13.36-3.44-26.88-7.01-31.26-8.51-2.6 5.63-.96 28.25-1.1 30.38z" fill="#F37021"/>
  <path d="M24.82 311.02l32 12.01L122 332.2l-6.49 28.93-60.08-26.37-30.5-11.64s-6.62-8.3-.1-12.09zM147.07 334.26l9.7 26.34 38.66-29.73 3.06-15-51.42 18.39z" fill="#FFDA7D"/>
  <path d="M121.99 332.2l25.08 2.06-13.53 17.05-11.55-19.12z" fill="#F37021"/>
  <path d="M24.92 323.11l30.33 11.57 1.57-11.65-32-12c-6.52 3.77.1 12.08.1 12.08z" fill="#FCB70B"/>
  <path d="M103.05 325.44c-15.24 0-28.33-3.18-39.2-9.53-25.14-14.7-28.37-40.86-28.49-41.97a4.34 4.34 0 018.61-.98c.03.23 2.97 23.1 24.38 35.53 23.43 13.62 61.03 10.12 108.7-10.11a4.33 4.33 0 113.4 7.99c-29.96 12.7-55.83 19.07-77.4 19.07z" fill="#fff"/>
  <path d="M460.06 332.69a1.5 1.5 0 00-1.18-1.08l-137.67-30.62c-5.44-1.2-11.13-1-16.47.62l-95.45 28.9c-.88.26-1.1.9-1.12 1.4l-5.56-.32a7.06 7.06 0 015.07-6.42l95.44-28.9a38.12 38.12 0 0119.3-.72l137.66 30.62a7.05 7.05 0 015.31 4.95l-5.33 1.57z" fill="#004F74"/>
  <path d="M308.96 397.08l-97.58 31.34s-2.64 4.34 35.06 6.15c44.08 2.12 150.74 11.13 150.74 11.13s58.32-24.89 60.45-28.05C459.76 414.5 319 403.81 319 403.81s-6.2-1.37-10.05-6.73z" fill="#A7E3FF"/>
  <path d="M456.94 419.37c-5.03 0-18.05-1.2-53.84-4.46-29.62-2.7-63.83-5.91-82.32-7.65A17.5 17.5 0 01305 389.47l2.19-92.1c.04-1.54 1.3-2.89 2.85-2.72a2.79 2.79 0 012.72 2.85l-2.19 92.1a11.9 11.9 0 0010.74 12.11c80.46 7.57 132.56 12.27 136.56 12.33a2.79 2.79 0 012.63 4.34c-.43.6-.7.99-3.56.99z" fill="#004F74"/>
  <path d="M211.38 431.34a2.78 2.78 0 01-.84-5.44l98.6-30.97a2.79 2.79 0 011.67 5.32l-98.6 30.96c-.28.1-.56.13-.83.13zM203.66 334.03a2.8 2.8 0 01-.68-.09l-30.05-7.88a7.06 7.06 0 01-5.41-6.62 7.05 7.05 0 014.75-7.11l70.07-25a41.8 41.8 0 0122.35-1.58l45.83 8.94a2.79 2.79 0 01-1.1 5.46l-45.84-8.94a36.17 36.17 0 00-19.38 1.37l-70.06 25a1.54 1.54 0 00-1.07 1.59c.02.35.17 1.22 1.21 1.48l30.05 7.88a2.79 2.79 0 01-.67 5.5z" fill="#004F74"/>
  <path d="M307 306.84l27.9-.8V292.3a4.77 4.77 0 00-4.95-4.77l-18 .51a5.11 5.11 0 00-4.96 5.06v13.74z" fill="#41C3FF"/>
  <path d="M289.5 405.16l14.14 7.21 35.9-3.3a8.44 8.44 0 007.43-8.16l1.74-83.17c0-4.07-38.11-13.84-42.21-13.4l-17.02 1.84a8.44 8.44 0 00-7.42 8.17v81.15c0 4.07 2.21 6.87 7.43 9.66z" fill="#41C3FF"/>
  <path d="M306.1 412.64l47.29-5.4c3.87-.44 7-4.1 7-8.17v-89.63c0-4.07-3.13-7.01-7-6.57l-47.3 1.48c-3.87.44-7 4.1-7 8.16v93.56c0 4.07 3.14 7 7 6.57z" fill="#A7E3FF"/>
  <path d="M342.23 356.65c8.1-7.29 9.1-19.4 2.22-27.04-6.88-7.64-19.02-7.93-27.12-.64-8.1 7.29-9.1 19.4-2.23 27.04 6.88 7.64 19.02 7.93 27.13.64z" fill="#DAF3FF"/>
  <path d="M352.63 430.13h56.07a9.98 9.98 0 009.87-8.55l.37-2.49c1.7-11.76 1.8-23.7.3-35.48l-.8-6.18a9.98 9.98 0 00-9.89-8.72h-55.92c-4.85 0-9 3.5-9.83 8.28a131.34 131.34 0 000 44.86 9.98 9.98 0 009.83 8.28z" fill="#41C3FF"/>
  <path d="M417.12 383.68h-73.07a6.82 6.82 0 01-6.82-6.82v-6a6.82 6.82 0 016.81-6.82h73.08a6.82 6.82 0 016.82 6.82v6a6.82 6.82 0 01-6.82 6.82z" fill="#41C3FF"/>
  <path d="M336.63 430.13h56.07a9.97 9.97 0 009.87-8.55l.36-2.49c1.7-11.76 1.8-23.7.3-35.48l-.79-6.18a9.98 9.98 0 00-9.9-8.72h-55.91c-4.85 0-9 3.5-9.83 8.28a131.34 131.34 0 000 44.86 9.98 9.98 0 009.83 8.28z" fill="#A7E3FF"/>
  <path d="M401.12 383.68h-73.08a6.82 6.82 0 01-6.82-6.82v-6a6.82 6.82 0 016.82-6.82h73.08a6.82 6.82 0 016.81 6.82v6a6.82 6.82 0 01-6.81 6.82z" fill="#41C3FF"/>
  <path d="M376.83 392.3h-24.5a4.3 4.3 0 010-8.62h24.5a4.3 4.3 0 010 8.62z" fill="#DAF3FF"/>
  <path d="M255.16 334.48c.3-1.94 2.2-3.78 4.1-3.24 1.3.38 2.12 1.68 3.36 2.24 3.56 1.6 7.46-3.72 11.08-2.23 1.16.48 1.95 1.57 3.05 2.17 2.23 1.2 4.94.1 7.27-.9 2.34-.98 5.28-1.76 7.2-.11 1.05.9 1.52 2.35 2.59 3.24 1.37 1.14 3.39 1.06 5.1.58 1.71-.47 3.35-1.3 5.12-1.49 1.77-.18 3.83.5 4.48 2.16.3.77.39 1.79 1.15 2.1.31.13.66.09 1 .05l4.44-.55c.61-.07 1.27-.14 1.8.18.62.38.84 1.17 1 1.89.28 1.2.55 2.48.14 3.64-.73 2.06-3.2 2.84-5.37 3.14-4.97.67-10.02.28-15.01-.2a295.32 295.32 0 01-25.63-3.4c-4.26-.8-8.54-1.66-12.73-2.79-3.07-.81-4.65-3.05-4.14-6.48zM233.8 420.63c-.18 1.96 1.05 4.18 2.8 4.07 1.2-.07 2.2-1.16 3.4-1.43 3.42-.77 5.59 5.3 9.03 4.65 1.1-.2 2.03-1.1 3.1-1.43 2.2-.67 4.28 1.01 6.07 2.5 1.78 1.48 4.14 2.9 6.16 1.72 1.1-.64 1.83-1.95 2.95-2.57 1.43-.8 3.15-.28 4.52.56 1.37.86 2.6 2.02 4.08 2.6 1.48.57 3.4.37 4.33-1.1.44-.68.73-1.65 1.46-1.78.3-.06.59.06.87.17l3.7 1.53c.5.2 1.06.42 1.59.22.62-.23.98-.95 1.28-1.61.5-1.1 1.03-2.3.93-3.51-.16-2.17-2.12-3.49-3.91-4.26-4.13-1.77-8.56-2.51-12.96-3.16a232.99 232.99 0 00-22.81-2.4c-3.85-.2-7.72-.3-11.58-.15-2.82.11-4.69 1.93-5 5.38z" fill="#41C3FF"/>
  <path d="M255.92 338s-38.15 34.44-19.82 79.94l53.35 6.41s30.42-13.12 29.54-80.33c-6.49-2.14-32.28-7.52-63.07-6.01z" fill="#A7E3FF"/>
  <path d="M316.22 345.76s-28.13 28.4-27.2 76.12c15.45-12.38 30.52-40.31 27.2-76.12zM282.05 392.06c.75-9.22-9.25-10.96-14.86-4.6-3.63 4.13-12.29 9.15-18.25 3.73 9.29 11.61 31.7 18.46 33.11.87z" fill="#41C3FF"/>
  <path d="M250.68 376.66c5.88-4.6 13.43 3.69 12.6 9.12-.81 5.44.1 15.32 8.02 16.83-10.85 2.08-34.5-15.07-20.62-25.95zM257.11 349.52s-4.9 5.13-5.05 10.83l37.98 4.56s1.44-8.22 6.01-11.16c-13.45-1.37-38.94-4.23-38.94-4.23z" fill="#DAF3FF"/>
  <path d="M378.11 281.65c.3-1.95 2.2-3.78 4.1-3.24 1.3.38 2.12 1.68 3.36 2.24 3.56 1.6 7.46-3.72 11.07-2.23 1.16.47 1.96 1.57 3.06 2.16 2.23 1.2 4.94.1 7.27-.89 2.33-.99 5.27-1.77 7.2-.11 1.05.9 1.52 2.35 2.58 3.24 1.38 1.13 3.4 1.06 5.1.58 1.72-.48 3.35-1.3 5.13-1.49 1.77-.18 3.82.5 4.48 2.16.3.76.38 1.79 1.15 2.1.31.12.66.08 1 .04l4.44-.54c.6-.08 1.27-.14 1.8.18.62.38.84 1.17 1 1.89.27 1.2.55 2.47.14 3.64-.73 2.06-3.2 2.84-5.37 3.13-4.97.68-10.02.29-15.01-.19a294.93 294.93 0 01-25.63-3.41 162.3 162.3 0 01-12.74-2.78c-3.06-.82-4.65-3.05-4.13-6.48zM356.75 367.8c-.18 1.96 1.05 4.18 2.8 4.07 1.2-.07 2.2-1.16 3.4-1.43 3.41-.76 5.58 5.3 9.02 4.65 1.1-.2 2.03-1.09 3.11-1.42 2.2-.68 4.28 1 6.06 2.5 1.79 1.47 4.15 2.89 6.17 1.71 1.1-.64 1.83-1.95 2.95-2.57 1.43-.8 3.15-.28 4.52.57 1.37.85 2.59 2.01 4.07 2.59 1.48.58 3.4.37 4.34-1.1.44-.68.73-1.65 1.46-1.78.3-.05.58.06.86.17l3.7 1.53c.51.2 1.07.42 1.6.22.62-.23.98-.95 1.28-1.6.5-1.12 1.03-2.3.93-3.52-.16-2.17-2.12-3.48-3.92-4.25-4.12-1.77-8.55-2.52-12.95-3.17a233.6 233.6 0 00-22.82-2.4c-3.84-.2-7.71-.3-11.57-.15-2.82.1-4.7 1.93-5.01 5.38z" fill="#41C3FF"/>
  <path d="M378.87 285.18s-38.15 34.43-19.82 79.93l53.35 6.41s30.42-13.12 29.54-80.33c-6.49-2.14-32.28-7.52-63.07-6.01z" fill="#A7E3FF"/>
  <path d="M439.17 292.92s-28.13 28.42-27.2 76.13c15.45-12.38 30.52-40.32 27.2-76.13zM405 339.23c.74-9.23-9.25-10.96-14.86-4.6-3.64 4.13-12.29 9.15-18.25 3.72 9.29 11.62 31.7 18.47 33.1.88z" fill="#41C3FF"/>
  <path d="M373.63 323.83c5.88-4.61 13.43 3.68 12.61 9.12-.82 5.43.1 15.32 8.01 16.82-10.85 2.1-34.5-15.06-20.62-25.94zM380.06 296.69s-4.9 5.13-5.06 10.83l37.99 4.56s1.44-8.23 6.01-11.16c-13.45-1.37-38.94-4.23-38.94-4.23z" fill="#DAF3FF"/>
  <path d="M239.85 437.15a2.78 2.78 0 01-2.78-2.78V341a2.78 2.78 0 115.57 0v93.37a2.78 2.78 0 01-2.79 2.78zM279.15 438.43a2.78 2.78 0 01-2.79-2.78v-88.8a2.78 2.78 0 115.57 0v88.8a2.78 2.78 0 01-2.78 2.78zM423.14 436.86a2.79 2.79 0 01-2.78-2.79V358.2a2.78 2.78 0 115.56 0v75.87a2.79 2.79 0 01-2.78 2.79zM444.48 428.06a2.78 2.78 0 01-2.78-2.79v-78.86a2.78 2.78 0 115.56 0v78.86a2.78 2.78 0 01-2.78 2.79zM318.44 442.07a2.78 2.78 0 01-2.78-2.78v-86.4a2.79 2.79 0 115.56 0v86.4a2.78 2.78 0 01-2.78 2.78zM358.41 446.09a2.78 2.78 0 01-2.78-2.79v-83.37a2.78 2.78 0 115.56 0v83.37a2.78 2.78 0 01-2.78 2.79z" fill="#41C3FF"/>
  <path d="M401.44 367.84c-1.88 0-3.77-.14-5.64-.42L208.68 339.1a7.06 7.06 0 01-6.07-7.5l5.56.3c-.01.25-.01 1.49 1.34 1.7l187.12 28.31a32.64 32.64 0 0020.79-3.8l41.89-23.57c1.05-.59.8-1.64.74-1.85l5.34-1.57a7.14 7.14 0 01-3.35 8.28l-41.89 23.56a38.32 38.32 0 01-18.71 4.88z" fill="#004F74"/>
  <path d="M399.73 447.38a2.78 2.78 0 01-1.1-5.34l52.82-22.8a12.56 12.56 0 006.68-10.83l1.96-74.78a2.78 2.78 0 115.57.15l-1.96 74.78a18.18 18.18 0 01-9.88 15.71l-52.98 22.88c-.37.16-.74.23-1.1.23z" fill="#004F74"/>
  <path d="M394.52 449.06c-.3 0-.59 0-.89-.03l-173.06-13.36a17.74 17.74 0 01-16.36-17.02l-3.34-87.3a2.78 2.78 0 012.68-2.9 2.89 2.89 0 012.89 2.68l3.33 87.3A12.18 12.18 0 00221 430.11l173.06 13.36a6.08 6.08 0 006.59-6.1v-72.31a2.79 2.79 0 115.56 0v72.31c0 3.25-1.36 6.37-3.74 8.58-2.16 2-5.02 3.11-7.95 3.11z" fill="#004F74"/>
  <path d="M234.44 294.25a8.38 8.38 0 01-4.8-7.37c-.04-4.34 1.28-10.22 8.28-12.12 7.34-1.99 12.18 3.58 14.75 7.94a8.38 8.38 0 01-.71 9.72c-2.9 3.32-8.27 6.28-17.52 1.82zM181.27 312.83c-3.94-1.42-6.63-4.4-6.68-7.71-.07-4.55 1.77-10.7 11.54-12.7 10.23-2.08 16.98 3.75 20.56 8.31 2.53 3.23 2.27 7.38-1 10.2-4.03 3.47-11.52 6.58-24.42 1.9zM234.12 214.84s2.29 17.76 18.17 21.78c-10.54 3.05-16.33 8.2-18.87 18.38 0 0-2.28-15.52-16.85-19.67 0 0 15.66-1.84 17.55-20.49zM261.78 245.15s1.12 8.73 8.92 10.7c-5.18 1.5-8.02 4.03-9.27 9.03 0 0-1.12-7.63-8.27-9.66 0 0 7.69-.91 8.62-10.07zM352.73 266s1.12 8.73 8.92 10.7c-5.18 1.5-8.02 4.03-9.27 9.02 0 0-1.12-7.62-8.27-9.65 0 0 7.69-.9 8.62-10.07zM454.83 265.53s1.13 8.72 8.93 10.7c-5.18 1.5-8.02 4.03-9.27 9.02 0 0-1.12-7.62-8.28-9.65 0 0 7.7-.92 8.62-10.07zM430.9 236.8s1.91 14.84 15.18 18.2c-8.8 2.55-13.64 6.85-15.76 15.35 0 0-1.9-12.96-14.08-16.43 0 0 13.08-1.54 14.66-17.12z" fill="#fff"/>
  <path d="M89.3 342.5c-28.63 1.1-49.32 27.64-58.65 42.4 8.9-16.37 24.75-49.27 17.49-64.56-17.23 2.27-30.76 37.12-30.76 37.12s2.73-45.3-12.7-65.25c-5.04 17-14.47 65.18 26 101.35 4.14 3.7 10.33 7.32 18.15 10.76 16.22-11.27 38.57-32.03 40.48-61.83z" fill="#41C3FF"/>
  <defs>
    <linearGradient id="paint0_linear" x1="82.31" y1="154.74" x2="97.39" y2="219.83" gradientUnits="userSpaceOnUse">
      <stop stop-color="#89C340"/>
      <stop offset="1" stop-color="#6FA329"/>
    </linearGradient>
    <linearGradient id="paint1_linear" x1="71.9" y1="137.56" x2="74" y2="146.59" gradientUnits="userSpaceOnUse">
      <stop stop-color="#04AE59"/>
      <stop offset="1" stop-color="#047B35"/>
    </linearGradient>
    <linearGradient id="paint2_linear" x1="119.81" y1="170.71" x2="116.55" y2="231.3" gradientUnits="userSpaceOnUse">
      <stop stop-color="#E90089"/>
      <stop offset="1" stop-color="#C4007C"/>
    </linearGradient>
    <linearGradient id="paint3_linear" x1="118.18" y1="155.33" x2="114.48" y2="223.88" gradientUnits="userSpaceOnUse">
      <stop stop-color="#F4901E"/>
      <stop offset="1" stop-color="#EA5F01"/>
    </linearGradient>
    <linearGradient id="paint4_linear" x1="115.99" y1="158.42" x2="134.5" y2="193.31" gradientUnits="userSpaceOnUse">
      <stop stop-color="#F4901E"/>
      <stop offset="1" stop-color="#EA5F01"/>
    </linearGradient>
    <linearGradient id="paint5_linear" x1="45.81" y1="185.94" x2="70.42" y2="242.79" gradientUnits="userSpaceOnUse">
      <stop stop-color="#F4901E"/>
      <stop offset="1" stop-color="#EA5F01"/>
    </linearGradient>
    <linearGradient id="paint6_linear" x1="50.02" y1="170.19" x2="77.31" y2="233.21" gradientUnits="userSpaceOnUse">
      <stop stop-color="#EA1D25"/>
      <stop offset="1" stop-color="#A80000"/>
    </linearGradient>
    <linearGradient id="paint7_linear" x1="42.16" y1="176.3" x2="40.54" y2="169.91" gradientUnits="userSpaceOnUse">
      <stop stop-color="#EA1D25"/>
      <stop offset="1" stop-color="#A80000"/>
    </linearGradient>
    <linearGradient id="paint8_linear" x1="55.31" y1="229.77" x2="11.81" y2="290.87" gradientUnits="userSpaceOnUse">
      <stop stop-color="#3EBDFF"/>
      <stop offset="1" stop-color="#0B75C4"/>
    </linearGradient>
    <linearGradient id="paint9_linear" x1="151.22" y1="197.66" x2="68.64" y2="313.64" gradientUnits="userSpaceOnUse">
      <stop stop-color="#74D3FF"/>
      <stop offset="1" stop-color="#0EB3FF"/>
    </linearGradient>
    <linearGradient id="paint10_linear" x1="129.39" y1="282.31" x2="127.8" y2="290.54" gradientUnits="userSpaceOnUse">
      <stop offset="0" stop-color="#0095DA"/>
      <stop offset="1" stop-color="#0072A7"/>
    </linearGradient>
    <linearGradient id="paint11_linear" x1="125.99" y1="295.12" x2="121.11" y2="305.26" gradientUnits="userSpaceOnUse">
      <stop stop-color="#EA1D25"/>
      <stop offset="1" stop-color="#A80000"/>
    </linearGradient>
  </defs>
</svg>